<?xml version="1.0" encoding="UTF-8"?>
<svg version="1.1" xmlns="http://www.w3.org/2000/svg" width="512" height="512">
<path d="M0 0 C3.48129984 3.04913848 5.70139838 6.2687097 8.14453125 10.16796875 C9.18718486 11.78099443 10.23155887 13.39290892 11.27734375 15.00390625 C11.84098633 15.87756836 12.40462891 16.75123047 12.98535156 17.65136719 C16.42167816 22.91579773 19.97705282 28.09964932 23.51953125 33.29296875 C24.55170776 34.81120239 24.55170776 34.81120239 25.60473633 36.36010742 C26.97548622 38.3745535 28.35840258 40.38077287 29.75317383 42.37866211 C31.83203125 45.48046875 31.83203125 45.48046875 33.77612305 48.91235352 C39.79558117 59.00888413 46.56222139 61.68030544 57.26953125 64.79296875 C58.94946008 65.31983653 60.62797459 65.85123139 62.30517578 66.38671875 C65.91656564 67.53184582 69.53479977 68.65004992 73.16064453 69.74853516 C78.86063808 71.47961699 84.53364495 73.28897093 90.203125 75.1171875 C92.17827649 75.75350349 94.15345592 76.38973274 96.12866211 77.02587891 C97.12654755 77.34727844 98.12443298 77.66867798 99.15255737 77.99981689 C102.22567621 78.9864548 105.30098972 79.96590875 108.37719727 80.94287109 C129.02078483 87.50083498 149.59553838 94.26513979 170.16635513 101.04714108 C172.87179332 101.93888642 175.57754993 102.82966321 178.28334045 103.72033882 C180.1552146 104.33706447 182.0265279 104.95549152 183.89782715 105.57395935 C185.01935181 105.94328079 186.14087646 106.31260223 187.29638672 106.69311523 C188.27364716 107.01569809 189.25090759 107.33828094 190.25778198 107.67063904 C192.43881828 108.3567684 194.60706545 108.95814634 196.83203125 109.48046875 C197.17427734 108.45953125 197.17427734 108.45953125 197.5234375 107.41796875 C199.15672743 103.75159853 201.40836595 100.69855001 203.76953125 97.48046875 C209.28867393 89.79224223 214.60519186 81.97541431 219.83035278 74.08544922 C220.70664502 72.76520121 221.58676052 71.44748288 222.47067261 70.13232422 C223.72246261 68.26795988 224.96047023 66.39514967 226.1953125 64.51953125 C226.92016846 63.42850098 227.64502441 62.3374707 228.3918457 61.21337891 C228.86710693 60.31151855 229.34236816 59.4096582 229.83203125 58.48046875 C229.50203125 57.49046875 229.17203125 56.50046875 228.83203125 55.48046875 C226.4202055 54.29610755 226.4202055 54.29610755 223.3203125 53.37109375 C222.71415604 53.17187317 222.10799957 52.97265259 221.48347473 52.76739502 C219.37400272 52.07711158 217.2593382 51.40421665 215.14453125 50.73046875 C213.59514729 50.22711981 212.04617282 49.72250906 210.49755859 49.21679688 C206.83258234 48.02141799 203.16550494 46.83271637 199.49755859 45.64648438 C191.7204853 43.12560206 183.95826937 40.5600277 176.1953125 37.99609375 C159.05669506 32.33758394 141.90794267 26.71045283 124.75112915 21.10736084 C122.93121275 20.51286736 121.11147521 19.9178264 119.29174805 19.32275391 C113.56478705 17.45083048 107.83512079 15.5880878 102.09759521 13.7487793 C100.52082597 13.24201668 98.94515062 12.73183601 97.3706665 12.21801758 C95.27488798 11.53509835 93.17545182 10.86512967 91.07421875 10.19921875 C89.94870605 9.83763672 88.82319336 9.47605469 87.66357422 9.10351562 C84.81552645 8.47683707 83.46301853 8.27634731 80.83203125 9.48046875 C79.36264894 10.90905345 79.36264894 10.90905345 78.16796875 12.76953125 C77.69061279 13.456521 77.21325684 14.14351074 76.72143555 14.85131836 C76.22168213 15.59518799 75.72192871 16.33905762 75.20703125 17.10546875 C74.68214111 17.86802979 74.15725098 18.63059082 73.61645508 19.41625977 C72.00785838 21.76197811 70.41697585 24.11871728 68.83203125 26.48046875 C68.36361816 27.17736816 67.89520508 27.87426758 67.41259766 28.59228516 C66.11169028 30.5320521 64.81485936 32.47447277 63.51953125 34.41796875 C63.11041504 35.02987061 62.70129883 35.64177246 62.27978516 36.2722168 C60.43486075 39.03885374 58.62498125 41.81306597 56.8671875 44.63671875 C56.27808594 45.55453125 55.68898438 46.47234375 55.08203125 47.41796875 C54.34726562 48.60712891 54.34726562 48.60712891 53.59765625 49.8203125 C51.83203125 51.48046875 51.83203125 51.48046875 48.75390625 51.859375 C45.83203125 51.48046875 45.83203125 51.48046875 43.83203125 49.48046875 C44.14756154 45.4053002 45.70838835 42.74766458 47.97265625 39.41015625 C48.62516357 38.43973389 49.2776709 37.46931152 49.94995117 36.46948242 C51.00533081 34.92804565 51.00533081 34.92804565 52.08203125 33.35546875 C52.79915283 32.29755127 53.51627441 31.23963379 54.25512695 30.1496582 C55.72828416 27.97832068 57.20461685 25.80913427 58.68408203 23.64208984 C60.68123167 20.70243449 62.65050199 17.74649729 64.609375 14.78125 C65.74579329 13.07662257 66.88249528 11.37218423 68.01953125 9.66796875 C68.53483398 8.88083496 69.05013672 8.09370117 69.58105469 7.28271484 C74.39569467 0.14327343 74.39569467 0.14327343 78.83203125 -1.51953125 C85.24214082 -1.94000991 90.24677709 -0.77750121 96.30078125 1.2421875 C97.2250441 1.54013214 98.14930695 1.83807678 99.10157776 2.14505005 C102.18218477 3.14141401 105.25699258 4.15456189 108.33203125 5.16796875 C110.52500497 5.88138845 112.71829101 6.59384874 114.91186523 7.30541992 C120.92883728 9.26105033 126.94058544 11.23230909 132.95135498 13.20690918 C136.93779204 14.51593186 140.92600159 15.81949959 144.91455078 17.12207031 C159.32425494 21.82856128 173.72844303 26.55119135 188.12371635 31.30164909 C195.24354039 33.65074375 202.36735265 35.98504396 209.50813293 38.2696991 C212.65835337 39.27788196 215.80533987 40.29590005 218.95187378 41.31552124 C220.30504767 41.75069468 221.65992407 42.1806178 223.01663208 42.60464478 C235.24687281 46.42793352 235.24687281 46.42793352 238.83203125 51.48046875 C239.6796875 53.65625 239.6796875 53.65625 239.89453125 55.79296875 C239.98863281 56.49035156 240.08273437 57.18773437 240.1796875 57.90625 C239.11054657 65.82269798 233.02290814 72.72914556 228.51953125 79.04296875 C222.68865389 87.35633909 216.87296623 95.67856509 211.20703125 104.10546875 C210.20289185 105.55288452 210.20289185 105.55288452 209.1784668 107.02954102 C208.57687744 107.93373779 207.97528809 108.83793457 207.35546875 109.76953125 C206.54988525 110.95603271 206.54988525 110.95603271 205.72802734 112.16650391 C204.60118574 114.44087791 204.60118574 114.44087791 205.34106445 116.76708984 C207.40857799 120.52971396 209.74714648 124.05947633 212.1640625 127.60546875 C213.25350272 129.22129703 214.34285536 130.83718436 215.43212891 132.453125 C215.9941803 133.28344238 216.55623169 134.11375977 217.13531494 134.96923828 C219.84684039 138.9824403 222.53191726 143.01321232 225.21875 147.04296875 C226.26878081 148.61595177 227.31891084 150.18886857 228.36914062 151.76171875 C229.14487427 152.92380859 229.14487427 152.92380859 229.9362793 154.109375 C231.01108297 155.71901158 232.08629216 157.32837744 233.16186523 158.9375 C234.74439603 161.30527763 236.3254696 163.67402228 237.90625 166.04296875 C238.38841476 166.76363525 238.87057953 167.48430176 239.36735535 168.22680664 C243.99869712 175.17342331 243.99869712 175.17342331 244.14453125 180.29296875 C244.18191406 181.14503906 244.21929687 181.99710938 244.2578125 182.875 C243.67128954 186.46409003 242.42989346 187.94964814 239.83203125 190.48046875 C237.43453042 191.66323583 235.27759568 192.57341329 232.76953125 193.41796875 C232.08286377 193.6617627 231.39619629 193.90555664 230.6887207 194.15673828 C228.41039374 194.95462371 226.1235891 195.72144867 223.83203125 196.48046875 C222.98833984 196.76132324 222.14464844 197.04217773 221.27539062 197.33154297 C218.69363414 198.18425529 216.10820556 199.02400631 213.51953125 199.85546875 C212.70154053 200.11835693 211.8835498 200.38124512 211.04077148 200.65209961 C210.27450439 200.8919458 209.5082373 201.13179199 208.71875 201.37890625 C208.04030029 201.59208496 207.36185059 201.80526367 206.6628418 202.02490234 C204.83203125 202.48046875 204.83203125 202.48046875 201.83203125 202.48046875 C201.85201675 203.72835426 201.85201675 203.72835426 201.87240601 205.00144958 C201.99301981 212.8716516 202.08417569 220.74153975 202.14290428 228.61245632 C202.17411369 232.65830095 202.216392 236.70337695 202.28466797 240.7487793 C202.35023783 244.65866117 202.3858153 248.56780751 202.40129471 252.4781971 C202.41231433 253.96410757 202.43383306 255.44998133 202.46641159 256.93557549 C202.63024468 264.72165312 202.54513386 271.16089554 197.80752563 277.67494202 C192.30511585 282.70393529 185.80737425 284.654083 178.80224609 286.69750977 C177.81702469 286.99253891 176.83180328 287.28756805 175.81672668 287.59153748 C172.56122555 288.56415225 169.30218198 289.52428002 166.04296875 290.484375 C163.7424179 291.16899046 161.44209847 291.85438403 159.14199829 292.54051208 C153.0659239 294.35074927 146.98677695 296.15044664 140.90692139 297.94793701 C134.86187379 299.73704932 128.81970574 301.53582706 122.77734375 303.33398438 C115.72212729 305.43306063 108.66632059 307.53005673 101.60760498 309.61734009 C91.21884785 312.6895428 80.83454364 315.77315796 70.46972656 318.92529297 C67.93218381 319.69344458 65.39444878 320.46095734 62.85664749 321.22825432 C60.58491858 321.91833045 58.31632641 322.61806242 56.04769897 323.31825256 C43.22917773 327.23066557 35.07658591 328.16227268 22.22265625 324.09375 C20.90512585 323.69226009 19.58700157 323.29271529 18.26837158 322.89485168 C15.22332865 321.97353312 12.1816411 321.04194095 9.14135742 320.1050415 C3.16416197 318.26895463 -2.82864427 316.4861922 -8.82226562 314.70458984 C-19.60807805 311.49679144 -30.38932418 308.27410547 -41.16768646 305.04136467 C-48.72550854 302.77457045 -56.28432438 300.51114059 -63.84404373 298.25068188 C-68.76048877 296.77983917 -73.67605903 295.30608988 -78.59139252 293.83153725 C-80.92091279 293.13321616 -83.25074583 292.43593748 -85.58090973 291.73976707 C-88.82602499 290.7699186 -92.06988391 289.79597165 -95.31347656 288.82104492 C-96.72397278 288.40096413 -96.72397278 288.40096413 -98.16296387 287.97239685 C-120.6239231 281.19911404 -120.6239231 281.19911404 -125.32113647 272.74481201 C-127.10906241 267.96408014 -126.6695119 262.83680123 -126.59375 257.80078125 C-126.59046188 256.59227509 -126.58717377 255.38376892 -126.58378601 254.13864136 C-126.57339358 251.59530212 -126.55349227 249.05198608 -126.5246582 246.50878906 C-126.48038619 242.5981761 -126.46319087 238.68817689 -126.45117188 234.77734375 C-126.43775589 232.30598063 -126.42283516 229.83462513 -126.40625 227.36328125 C-126.39886307 226.18734406 -126.39147614 225.01140686 -126.38386536 223.79983521 C-126.37103012 222.72136322 -126.35819489 221.64289124 -126.3449707 220.53173828 C-126.3351265 219.57800323 -126.32528229 218.62426819 -126.31513977 217.64163208 C-126.16796875 215.48046875 -126.16796875 215.48046875 -125.16796875 214.48046875 C-122.16796875 214.35546875 -122.16796875 214.35546875 -119.16796875 214.48046875 C-117.58354365 216.06489385 -118.02746704 217.69134981 -118.01025391 219.88916016 C-117.99999176 220.82748688 -117.98972961 221.7658136 -117.97915649 222.73257446 C-117.97185516 223.7553952 -117.96455383 224.77821594 -117.95703125 225.83203125 C-117.92894802 227.98438241 -117.90028347 230.13672606 -117.87109375 232.2890625 C-117.82991669 235.69254226 -117.79304321 239.09588384 -117.76660156 242.49951172 C-117.73890853 245.77731673 -117.69301773 249.05447653 -117.64453125 252.33203125 C-117.64127838 253.3427066 -117.63802551 254.35338196 -117.63467407 255.39468384 C-117.53491696 261.15882569 -117.18106639 265.49478482 -114.16796875 270.48046875 C-109.15052228 274.99527121 -102.74918511 276.3667485 -96.39453125 278.18359375 C-95.19867401 278.53494385 -94.00281677 278.88629395 -92.77072144 279.24829102 C-89.47222405 280.2157991 -86.17137979 281.17439576 -82.86917114 282.12910461 C-77.16051891 283.78259405 -71.4581286 285.45768855 -65.75470734 287.12911224 C-64.23381741 287.57459453 -62.71279405 288.01962149 -61.19164276 288.46421051 C-49.16036588 291.98109745 -37.16061779 295.59431352 -25.17408371 299.26065826 C-22.42303484 300.10153234 -19.67132481 300.9402029 -16.91934204 301.77801514 C-16.01679625 302.05279316 -15.11425045 302.32757118 -14.18435478 302.61067581 C-12.37096009 303.16267481 -10.55754085 303.71459319 -8.74409676 304.2664299 C-4.26534929 305.63039182 0.21147563 307.00015487 4.68475342 308.38195801 C8.92521387 309.69167883 13.16991418 310.98664296 17.41808701 312.27111816 C18.9868406 312.74843835 20.55393476 313.23125246 22.11917496 313.7199707 C24.27388154 314.39202839 26.43367681 315.04432674 28.59570312 315.69238281 C29.80609253 316.06365295 31.01648193 316.4349231 32.2635498 316.81744385 C39.8510876 318.2272106 46.72527939 315.80711349 53.93115234 313.58813477 C54.91158508 313.29193741 55.89201782 312.99574005 56.90216064 312.69056702 C60.13847222 311.71123968 63.37192216 310.72278962 66.60546875 309.734375 C68.88894528 309.04170458 71.17260977 308.3496535 73.45645142 307.65818787 C79.48506142 305.83133294 85.51135267 303.99694682 91.53710938 302.16070557 C101.06412059 299.25909307 110.59490352 296.36988153 120.12506866 293.47864914 C123.58875483 292.42694994 127.05172663 291.37292534 130.5145874 290.31851196 C140.53255163 287.27160176 150.55404899 284.24630361 160.61816406 281.35498047 C161.42701113 281.12169887 162.23585819 280.88841726 163.06921577 280.64806652 C166.70805626 279.59954209 170.34910581 278.56120196 173.99691772 277.54432678 C175.22850616 277.191884 176.4600946 276.83944122 177.72900391 276.47631836 C178.77432281 276.18373642 179.81964172 275.89115448 180.89663696 275.58970642 C185.56269716 273.8264783 189.00027186 271.79214401 191.6887207 267.55249023 C193.67987362 262.04789205 193.19875509 256.09500585 193.125 250.328125 C193.12075516 249.07285507 193.11651031 247.81758514 193.11213684 246.52427673 C193.09823753 243.20817538 193.07134627 239.89270823 193.0380249 236.57678223 C193.00718045 233.18470705 192.993601 229.79256601 192.97851562 226.40039062 C192.94550763 219.76024322 192.8953534 213.12039255 192.83203125 206.48046875 C191.82227989 206.81300911 191.82227989 206.81300911 190.79212952 207.15226746 C175.16018979 212.29923257 159.52319502 217.43036515 143.87875366 222.53919983 C136.56294586 224.92890663 129.25156102 227.33104871 121.94651794 229.75352478 C118.18712184 230.99676794 114.42321893 232.22583753 110.65768433 233.4503479 C108.95454761 234.0075264 107.2534196 234.57088676 105.55447388 235.14071655 C89.03743951 240.67374679 89.03743951 240.67374679 81.83203125 238.48046875 C71.13457732 230.0785414 63.56601688 214.70134996 56.12890625 203.44140625 C54.17345601 200.48359177 52.19740338 197.54658822 50.16015625 194.64453125 C49.433125 193.60039062 48.70609375 192.55625 47.95703125 191.48046875 C47.34085938 190.61421875 46.7246875 189.74796875 46.08984375 188.85546875 C44.64454599 186.12645931 44.41030028 184.52516064 44.83203125 181.48046875 C46.83203125 179.48046875 46.83203125 179.48046875 49.234375 179.08203125 C51.83203125 179.48046875 51.83203125 179.48046875 53.6484375 181.25390625 C54.22464844 182.11242187 54.80085937 182.9709375 55.39453125 183.85546875 C56.08289063 184.86351562 56.77125 185.8715625 57.48046875 186.91015625 C58.26517532 188.09969855 59.04897204 189.28984137 59.83203125 190.48046875 C60.73988889 191.83790659 61.64879566 193.19464319 62.55859375 194.55078125 C64.57506986 197.56251091 66.57893612 200.58224353 68.578125 203.60546875 C70.84839013 207.02586205 73.15661757 210.41683496 75.4921875 213.79296875 C76.09135986 214.65986328 76.69053223 215.52675781 77.30786133 216.41992188 C78.47444087 218.1035721 79.64474948 219.7846457 80.8190918 221.46289062 C81.6066687 222.60081055 81.6066687 222.60081055 82.41015625 223.76171875 C82.8784082 224.43267578 83.34666016 225.10363281 83.82910156 225.79492188 C84.83203125 227.48046875 84.83203125 227.48046875 84.83203125 229.48046875 C92.88048979 228.95250116 100.23644224 226.2436985 107.82421875 223.6953125 C109.31365427 223.20131434 110.80332992 222.7080397 112.29322815 222.21543884 C115.45790387 221.16775203 118.62110464 220.11577275 121.78317261 219.0602417 C129.22319264 216.57701602 136.67048498 214.11574402 144.11719322 211.65266418 C146.61126651 210.82749919 149.10505608 210.00148073 151.59883118 209.17541504 C167.75362567 203.82775759 183.9547219 198.63105195 200.17333984 193.48022461 C202.0166459 192.89450801 203.8599092 192.30865683 205.703125 191.72265625 C206.98987122 191.31367851 206.98987122 191.31367851 208.3026123 190.8964386 C216.84023183 188.17429829 225.33978059 185.34056331 233.83203125 182.48046875 C234.15900897 178.32611632 233.47120627 176.3642902 231.03515625 173.015625 C230.41543945 172.14728027 229.79572266 171.27893555 229.15722656 170.38427734 C228.47241211 169.44664551 227.78759766 168.50901367 227.08203125 167.54296875 C225.6206487 165.49696618 224.16248065 163.44866493 222.70703125 161.3984375 C222.32041321 160.85548035 221.93379517 160.31252319 221.53546143 159.75311279 C216.09628555 152.0833148 210.94932119 144.2144292 205.7701416 136.36795044 C204.92546255 135.08867297 204.07990672 133.80997392 203.23339844 132.53190613 C202.10955667 130.83499493 200.98875195 129.13607344 199.86816406 127.43701172 C196.21278957 122.1292677 194.03744576 119.08273092 187.74560547 117.05541992 C186.50401169 116.64637924 185.26241791 116.23733856 183.98320007 115.81590271 C182.61781306 115.38474275 181.25231589 114.9539315 179.88671875 114.5234375 C178.45895136 114.05998932 177.03165845 113.59507715 175.60481262 113.12879944 C171.77322168 111.88126363 167.93530611 110.65437509 164.0958519 109.43128967 C160.09881551 108.1540814 156.108004 106.8577098 152.11645508 105.56347656 C143.41304876 102.7454402 134.7011275 99.95441979 125.98705292 97.16957855 C122.71027674 96.12176608 119.43448249 95.07090786 116.15869141 94.02001953 C103.32051512 89.90119261 103.32051512 89.90119261 90.47241211 85.81347656 C81.53164002 82.97804393 72.61604379 80.09683817 63.75390625 77.0234375 C62.97501541 76.75522186 62.19612457 76.48700623 61.39363098 76.21066284 C57.85565481 74.99189205 54.32486831 73.75859992 50.80541992 72.48730469 C49.6063501 72.07125977 48.40728027 71.65521484 47.171875 71.2265625 C46.15472412 70.86232178 45.13757324 70.49808105 44.08959961 70.12280273 C37.19398322 68.76311101 30.51647175 70.62164197 23.98120117 72.8503418 C23.24998645 73.09158689 22.51877172 73.33283197 21.76539898 73.58138752 C19.36158198 74.37667674 16.96214149 75.18439612 14.5625 75.9921875 C12.85526792 76.55951021 11.1477521 77.12597973 9.43997192 77.69165039 C5.82900786 78.88932293 2.21982117 80.09214989 -1.38803101 81.29916382 C-6.98876307 83.17240138 -12.59401379 85.0318217 -18.20043945 86.88793945 C-20.06279046 87.50462179 -21.92514092 88.12130574 -23.78749084 88.73799133 C-25.1620428 89.19310813 -25.1620428 89.19310813 -26.56436348 89.6574192 C-29.32499195 90.57188696 -32.08527729 91.48738272 -34.84544373 92.40324402 C-47.9302226 96.74465762 -61.01727508 101.07764348 -74.14291382 105.29434204 C-75.93522698 105.87158847 -77.72629498 106.45271707 -79.51602173 107.03793335 C-81.92172285 107.8241431 -84.33112659 108.59760069 -86.7421875 109.3671875 C-87.40813934 109.58769775 -88.07409119 109.80820801 -88.76022339 110.03540039 C-92.99606722 111.36442233 -96.73913591 111.75860127 -101.16796875 111.48046875 C-102.16796875 110.48046875 -102.16796875 110.48046875 -102.23046875 107.41796875 C-102.20984375 106.44859375 -102.18921875 105.47921875 -102.16796875 104.48046875 C-97.34471174 102.34529721 -92.49724724 100.50297309 -87.48071289 98.86767578 C-86.74414963 98.6247731 -86.00758636 98.38187042 -85.248703 98.13160706 C-82.81782564 97.33081124 -80.38550203 96.53450913 -77.953125 95.73828125 C-76.22041082 95.16862021 -74.48778218 94.59869892 -72.75523376 94.02853394 C-68.17333913 92.52154589 -63.59017902 91.01844195 -59.0067749 89.51605225 C-54.50040789 88.03803678 -49.99541353 86.55585004 -45.49023438 85.07421875 C-37.44442712 82.42900098 -29.39630141 79.79092868 -21.34653664 77.15777969 C-15.74000132 75.32357622 -10.13517821 73.48424114 -4.53137684 71.64170265 C-0.80189907 70.41643401 2.92880357 69.19492821 6.65982246 67.97436142 C8.43228288 67.39369684 10.20424701 66.81151503 11.97569084 66.2277565 C14.41679868 65.42361355 16.85963651 64.62496085 19.30297852 63.82763672 C20.02562708 63.58815685 20.74827564 63.34867699 21.49282265 63.10194016 C24.39778721 62.15930957 26.75597126 61.48046875 29.83203125 61.48046875 C24.28523777 52.36262018 18.52543203 43.47590222 12.31347656 34.79614258 C8.46092528 29.40592839 4.75190502 23.93540942 1.12890625 18.38842773 C-1.14060645 14.93412448 -3.53372868 11.66550447 -6.16796875 8.48046875 C-14.84828715 9.87597764 -23.04415737 12.58224259 -31.35546875 15.36328125 C-32.84227371 15.85576138 -34.32927305 16.347655 -35.81645203 16.83900452 C-38.96905793 17.88163952 -42.12052486 18.92761745 -45.27108765 19.97640991 C-52.68260337 22.44335429 -60.09969875 24.89343005 -67.51675987 27.34364128 C-69.17421982 27.89123847 -70.83161028 28.43904603 -72.48893166 28.98706245 C-89.57466014 34.63604613 -106.7044184 40.13965686 -123.86132812 45.56884766 C-128.96972909 47.18719996 -134.07210118 48.82307823 -139.16796875 50.48046875 C-139.9075885 50.71960999 -140.64720825 50.95875122 -141.40924072 51.20513916 C-143.42363827 51.86249786 -145.43134192 52.53672317 -147.4375 53.21875 C-148.53296143 53.58653564 -149.62842285 53.95432129 -150.75708008 54.33325195 C-151.55267334 54.7118335 -152.3482666 55.09041504 -153.16796875 55.48046875 C-153.49796875 56.47046875 -153.82796875 57.46046875 -154.16796875 58.48046875 C-152.66977177 61.13363732 -151.12221823 63.58127898 -149.40234375 66.0859375 C-148.89431213 66.8428035 -148.38628052 67.59966949 -147.862854 68.37947083 C-146.2241579 70.81560469 -144.57127018 73.24172964 -142.91796875 75.66796875 C-141.84933108 77.25262889 -140.78161261 78.83790933 -139.71484375 80.42382812 C-137.59420135 83.57322826 -135.45928223 86.71224457 -133.31445312 89.84521484 C-131.22005003 92.91017729 -129.17424409 96.00009214 -127.16210938 99.11962891 C-126.68082581 99.85288895 -126.19954224 100.58614899 -125.70367432 101.34162903 C-124.80380305 102.7136896 -123.91679222 104.09431343 -123.0458374 105.48490906 C-120.04058793 110.01604038 -117.45891817 111.71978767 -112.16796875 113.48046875 C-111.46583252 113.71956467 -110.76369629 113.95866058 -110.0402832 114.20500183 C-107.59940503 115.02339574 -105.14779591 115.79976159 -102.69140625 116.5703125 C-101.75770706 116.8667012 -100.82400787 117.1630899 -99.86201477 117.46846008 C-97.82806736 118.11408003 -95.79367112 118.75828728 -93.75888062 119.40124512 C-88.15665242 121.17241238 -82.55859769 122.95664384 -76.9609375 124.7421875 C-75.77270889 125.12118195 -74.58448029 125.50017639 -73.36024475 125.89065552 C-60.47874814 130.00747049 -47.62867832 134.21884879 -34.78137207 138.44085693 C-30.87028574 139.72601064 -26.95814051 141.00792062 -23.04589844 142.28955078 C-12.71828821 145.67419188 -2.39139763 149.05957587 7.91014099 152.5229187 C11.38863588 153.69123916 14.87044893 154.84943866 18.35287476 156.00598145 C19.89853019 156.52268932 21.44241153 157.04474098 22.98428345 157.57263184 C25.05175062 158.28046604 27.12440746 158.97030284 29.19921875 159.65625 C30.32440918 160.03692627 31.44959961 160.41760254 32.60888672 160.80981445 C40.56676472 162.46564621 48.28213253 158.85404434 55.7578125 156.3515625 C57.04666568 155.9250521 58.33571277 155.49912728 59.62493896 155.07374573 C62.37131547 154.16652082 65.11653603 153.25591298 67.86087036 152.3425293 C74.35943801 150.1799832 80.86384008 148.03509609 87.36799431 145.88942337 C88.83711625 145.40469003 90.30616731 144.91974179 91.77514839 144.43458176 C108.14214346 139.0293297 124.55422017 133.76931346 140.97973633 128.54467773 C141.93679977 128.23997055 142.89386322 127.93526337 143.87992859 127.62132263 C145.71037408 127.0388941 147.54118053 126.45759843 149.37239075 125.87757874 C153.36720735 124.60787804 157.34907011 123.31509433 161.30810547 121.9375 C161.99343857 121.70063477 162.67877167 121.46376953 163.38487244 121.21972656 C165.17152646 120.59750581 166.954023 119.96338078 168.73608398 119.328125 C171.97516616 118.44127906 174.49450729 118.09201513 177.83203125 118.48046875 C179.83203125 121.48046875 179.83203125 121.48046875 179.45703125 124.16796875 C179.14765625 125.31265625 179.14765625 125.31265625 178.83203125 126.48046875 C155.85624594 134.1944621 132.83938344 141.78345462 109.81501007 149.35090256 C107.55674724 150.09323517 105.29859231 150.83589508 103.04046631 151.5786438 C92.97424915 154.88924344 82.90514918 158.1909235 72.83203125 161.48046875 C72.09408577 161.72153854 71.35614029 161.96260834 70.59583282 162.21098328 C66.18668211 163.65082069 61.77632646 165.08687134 57.36426735 166.51777267 C55.99075673 166.96362884 54.61756077 167.41045561 53.24469566 167.85829544 C51.36041918 168.47264436 49.47479935 169.08286854 47.58911133 169.69287109 C45.98789177 170.21269058 45.98789177 170.21269058 44.35432434 170.74301147 C41.83203125 171.48046875 41.83203125 171.48046875 39.83203125 171.48046875 C39.56898193 172.20290771 39.30593262 172.92534668 39.03491211 173.66967773 C37.8037493 176.54655564 36.35971754 178.87869574 34.5859375 181.453125 C33.92247314 182.42193604 33.25900879 183.39074707 32.57543945 184.38891602 C31.85573975 185.42975342 31.13604004 186.47059082 30.39453125 187.54296875 C29.25376419 189.20519407 28.11301208 190.86742981 26.97294617 192.53013611 C26.17368115 193.69531979 25.37379383 194.8600768 24.57331848 196.02442932 C21.59295495 200.36113171 18.63669141 204.71362997 15.69140625 209.07421875 C15.05699867 210.01278969 15.05699867 210.01278969 14.40977478 210.97032166 C12.75077903 213.42485643 11.09184371 215.87942571 9.43582153 218.33596802 C-2.865205 236.5757717 -2.865205 236.5757717 -6.41796875 239.04296875 C-16.48340376 240.64428796 -26.28869566 236.42758085 -35.66796875 233.2578125 C-37.28934341 232.71861291 -38.91105065 232.1804125 -40.5330658 231.6431427 C-43.96923275 230.50296926 -47.40326507 229.35667035 -50.83566284 228.2052002 C-56.19387423 226.40778611 -61.55641224 224.62357113 -66.92016602 222.84277344 C-67.80912724 222.54763288 -68.69808847 222.25249233 -69.61398792 221.94840813 C-71.40606356 221.3534952 -73.19816029 220.75864578 -74.99027824 220.16386032 C-77.67006276 219.27403925 -80.34941071 218.38291328 -83.02870178 217.49160767 C-99.63553208 211.97123265 -116.2967087 206.63126903 -132.99023438 201.37866211 C-141.10691937 198.81776837 -149.21310843 196.21877693 -157.234375 193.37109375 C-158.2081736 193.04344025 -158.2081736 193.04344025 -159.2016449 192.70916748 C-163.47347655 191.1444981 -165.67723056 189.26577255 -168.16796875 185.48046875 C-169.40264079 181.96490257 -169.05326035 179.07262054 -168.16796875 175.48046875 C-165.33446311 169.80700301 -161.76217648 164.69328815 -158.16796875 159.48046875 C-156.92527545 157.63663384 -155.68447813 155.79152006 -154.4453125 153.9453125 C-151.27594732 149.23928541 -148.06691057 144.56233679 -144.8359375 139.8984375 C-143.41012998 137.83151746 -142.00356457 135.75365268 -140.60546875 133.66796875 C-139.92484375 132.67796875 -139.24421875 131.68796875 -138.54296875 130.66796875 C-137.99382812 129.85714844 -137.4446875 129.04632813 -136.87890625 128.2109375 C-134.70353813 126.01073641 -133.23242359 125.62427003 -130.16796875 125.48046875 C-128.16796875 127.48046875 -128.16796875 127.48046875 -127.74389648 130.12597656 C-128.32268963 134.70434033 -130.32919358 137.43642342 -132.953125 141.15234375 C-133.44703232 141.87480286 -133.94093964 142.59726196 -134.44981384 143.34161377 C-136.03048405 145.64708221 -137.63003342 147.93868973 -139.23046875 150.23046875 C-140.28056258 151.75563974 -141.32940375 153.281674 -142.37695312 154.80859375 C-150.04139085 165.95230765 -150.04139085 165.95230765 -153.47607422 170.61132812 C-154.43537842 171.91553711 -154.43537842 171.91553711 -155.4140625 173.24609375 C-155.95603271 173.96055664 -156.49800293 174.67501953 -157.05639648 175.41113281 C-158.40883888 177.92887974 -158.25055793 179.6622422 -158.16796875 182.48046875 C-128.05022175 192.38783631 -97.92189855 202.25474983 -67.7109375 211.875 C-58.12143339 214.92961531 -48.53878389 218.00150084 -38.9765625 221.140625 C-37.66346352 221.57078163 -37.66346352 221.57078163 -36.32383728 222.0096283 C-32.25607013 223.34238033 -28.19019948 224.68037245 -24.12768555 226.02905273 C-22.71671803 226.49228043 -21.30567165 226.95526798 -19.89453125 227.41796875 C-18.68361816 227.81886719 -17.47270508 228.21976563 -16.22509766 228.6328125 C-13.05428456 229.65859632 -13.05428456 229.65859632 -9.16796875 229.48046875 C-8.92691406 228.78695312 -8.68585938 228.0934375 -8.4375 227.37890625 C-6.95081263 223.98468463 -4.98859854 221.11160913 -2.85546875 218.10546875 C-1.87614589 216.704143 -0.89843769 215.30168817 0.078125 213.8984375 C0.65030762 213.07649902 1.22249023 212.25456055 1.81201172 211.40771484 C6.63095749 204.42449514 11.35803873 197.37792918 16.10586548 190.34625244 C17.44870958 188.35791504 18.79266061 186.37032936 20.13671875 184.3828125 C20.7347506 183.49593498 20.7347506 183.49593498 21.34486389 182.59114075 C24.10850564 178.50574943 26.95245584 174.48504757 29.83203125 170.48046875 C8.43116834 163.29634289 -13.00238203 156.2110726 -34.44729614 149.15969849 C-37.34818514 148.20583883 -40.24878167 147.25109756 -43.1491394 146.29562378 C-58.2161607 141.33298551 -73.2918742 136.41025165 -88.43359375 131.6796875 C-89.60638885 131.31165009 -90.77918396 130.94361267 -91.98751831 130.56442261 C-97.43744048 128.85437382 -102.89086664 127.15856486 -108.35400391 125.49121094 C-110.26876494 124.89325098 -112.18332852 124.2946582 -114.09765625 123.6953125 C-115.38026337 123.31387337 -115.38026337 123.31387337 -116.68878174 122.92472839 C-124.86738176 120.32876854 -128.66769592 115.10455373 -133.265625 108.1875 C-133.73724564 107.48799225 -134.20886627 106.7884845 -134.69477844 106.06777954 C-136.21260296 103.81342406 -137.72213064 101.55368035 -139.23046875 99.29296875 C-140.26813259 97.7427463 -141.30605638 96.19269782 -142.34423828 94.64282227 C-143.88066522 92.34893594 -145.41660641 90.05474205 -146.95001221 87.75883484 C-149.69305667 83.65693332 -152.47086303 79.58542768 -155.3125 75.55078125 C-156.15639282 74.33878052 -156.15639282 74.33878052 -157.01733398 73.10229492 C-157.9915513 71.70746018 -158.97820364 70.32117444 -159.98071289 68.9465332 C-163.15624167 64.34490885 -164.26577563 60.09121088 -164.16796875 54.48046875 C-162.91241485 50.04417832 -161.79935784 48.8371396 -157.77099609 46.56152344 C-152.50222395 44.04348319 -147.00707502 42.28350147 -141.45703125 40.49609375 C-140.3166037 40.1234137 -139.17617615 39.75073364 -138.00119019 39.36676025 C-134.90980061 38.35812571 -131.81664308 37.35517129 -128.72250366 36.35501099 C-126.12654253 35.51476323 -123.53212698 34.66979929 -120.93770981 33.82479858 C-101.47693638 27.48682525 -81.99381865 21.21652377 -62.48925781 15.01464844 C-53.23804984 12.07204923 -43.99640199 9.10865508 -34.78515625 6.04296875 C-33.19341309 5.51611374 -31.6016179 4.98941588 -30.00976562 4.46289062 C-27.13942323 3.51330135 -24.27450217 2.54941998 -21.41210938 1.57617188 C-6.79713183 -3.26027655 -6.79713183 -3.26027655 0 0 Z " fill="#728BAB" transform="translate(218.16796875,169.51953125)"/>
<path d="M0 0 C1.14297546 0.37728745 2.28595093 0.75457489 3.46356201 1.14329529 C6.56653325 2.16821949 9.66783217 3.19803068 12.76857376 4.22967529 C17.98763587 5.96360503 23.21170425 7.68245183 28.43494987 9.40372849 C29.77138222 9.84422895 31.10774276 10.28494732 32.44403267 10.72587967 C48.51479294 16.02856116 64.63291672 21.18090239 80.75708008 26.31860352 C81.74790588 26.63442886 82.73873169 26.95025421 83.75958252 27.27565002 C85.5811662 27.85600648 87.40296352 28.43569306 89.22503662 29.01451111 C94.62775177 30.73398457 100.0126288 32.50163756 105.38671875 34.30859375 C104.38671875 36.30859375 104.38671875 36.30859375 102.05934143 37.27664185 C101.02212448 37.61476898 99.98490753 37.95289612 98.91625977 38.30126953 C97.73462753 38.69047073 96.5529953 39.07967194 95.33555603 39.48066711 C94.02063314 39.90524781 92.70565437 40.32965548 91.390625 40.75390625 C90.02494753 41.20044152 88.65947811 41.64761352 87.29420471 42.09538269 C83.61246474 43.30066007 79.92767705 44.49635235 76.24216461 45.69003677 C73.19380338 46.67856001 70.14717938 47.67237448 67.10057449 48.66629505 C57.91993149 51.66125834 48.73389068 54.63940097 39.54549408 57.61048126 C37.4619704 58.2842586 35.37857897 58.95844323 33.29522705 59.63275146 C25.03713802 62.30514233 16.77589487 64.96758771 8.51171875 67.62109375 C7.4558255 67.96070129 6.39993225 68.30030884 5.31204224 68.65020752 C2.36137367 69.5980967 -0.59052783 70.54202289 -3.54296875 71.484375 C-4.82584023 71.89685738 -4.82584023 71.89685738 -6.1346283 72.31767273 C-6.92148514 72.56773575 -7.70834198 72.81779877 -8.51904297 73.07543945 C-9.19409882 73.29110062 -9.86915466 73.50676178 -10.56466675 73.72895813 C-15.05782642 75.00025412 -17.93502154 75.53520447 -22.4362793 74.02368164 C-23.37747116 73.71429657 -24.31866302 73.4049115 -25.28837585 73.08615112 C-26.30696182 72.73803375 -27.32554779 72.38991638 -28.375 72.03125 C-29.45380936 71.67346466 -30.53261871 71.31567932 -31.64411926 70.947052 C-35.1999462 69.76559906 -38.75017942 68.56814787 -42.30078125 67.37109375 C-46.65650841 65.91975072 -51.01416363 64.47424356 -55.37178421 63.02859688 C-57.2931915 62.3905659 -59.21407747 61.7509863 -61.13485718 61.11106873 C-74.09291859 56.79729526 -87.09879758 52.63605921 -100.11328125 48.49609375 C-106.79166194 46.37061972 -113.46921214 44.24273438 -120.14208984 42.10003662 C-121.76527004 41.58018438 -123.38927236 41.06289085 -125.01416016 40.54840088 C-127.16407434 39.86730064 -129.31086128 39.17716554 -131.45703125 38.484375 C-132.63458984 38.10837158 -133.81214844 37.73236816 -135.02539062 37.3449707 C-137.61328125 36.30859375 -137.61328125 36.30859375 -138.61328125 34.30859375 C-111.35990866 25.37141291 -84.08773329 16.49880797 -56.75634766 7.80273438 C-55.77739532 7.49067047 -54.79844299 7.17860657 -53.78982544 6.85708618 C-51.87067084 6.24565682 -49.95098347 5.63589682 -48.0307312 5.02792358 C-43.24281049 3.50405762 -38.4825406 1.92638294 -33.74414062 0.25439453 C-32.79504822 -0.0764061 -31.84595581 -0.40720673 -30.86810303 -0.74803162 C-29.07786243 -1.37530209 -27.2918503 -2.01483496 -25.5112915 -2.66908264 C-16.19915182 -5.9164422 -9.03725855 -3.02678415 0 0 Z " fill="#2C73FF" transform="translate(272.61328125,249.69140625)"/>
<path d="M0 0 C0.69931641 -0.020625 1.39863281 -0.04125 2.11914062 -0.0625 C7.65491431 -0.10392768 11.7007761 0.98182428 15.83203125 4.75 C19.70941951 9.72965583 20.5246003 12.95746112 20.1875 19.25 C19.1975 20.735 19.1975 20.735 18.1875 22.25 C15.125 22.5 15.125 22.5 12.1875 22.25 C10.26758639 20.33008639 10.34237696 16.98171222 9.8828125 14.37890625 C9.31150642 11.88581873 9.31150642 11.88581873 6.1875 10.25 C-1.03222371 8.48251577 -7.76505979 10.23877199 -14.34375 13.5078125 C-20.12662901 17.13201407 -25.71891005 22.06282011 -28.8125 28.25 C-27.98350945 28.25879936 -27.98350945 28.25879936 -27.13777161 28.26777649 C-21.37854053 28.33177822 -15.61986474 28.41621516 -9.86108398 28.51245117 C-7.71272102 28.54567746 -5.56427125 28.57371653 -3.41577148 28.59643555 C-0.32498224 28.63002331 2.76501312 28.68234221 5.85546875 28.73828125 C6.81398239 28.74467117 7.77249603 28.7510611 8.76005554 28.75764465 C13.66991588 28.86556302 17.25916916 28.9641962 21.1875 32.25 C23.53299674 35.76824511 23.76741403 37.10775694 23.1875 41.25 C20.8125 44.125 20.8125 44.125 18.1875 46.25 C17.5275 46.25 16.8675 46.25 16.1875 46.25 C16.63802734 47.26707031 16.63802734 47.26707031 17.09765625 48.3046875 C19.78230606 54.87525416 21.26115033 60.29717242 19.1875 67.25 C17.30525182 71.06275913 14.46790346 73.38768739 10.625 75.125 C0.98568736 78.14519739 -8.83084213 76.47945794 -17.8125 72.25 C-27.80500557 66.27564482 -35.19564191 58.96111076 -39.8125 48.25 C-39.8125 47.59 -39.8125 46.93 -39.8125 46.25 C-40.575625 46.20875 -41.33875 46.1675 -42.125 46.125 C-44.8125 45.25 -44.8125 45.25 -46.75 42.625 C-48.08104162 38.39698545 -47.45225351 36.31034202 -45.8125 32.25 C-45.1525 31.59 -44.4925 30.93 -43.8125 30.25 C-42.4925 30.25 -41.1725 30.25 -39.8125 30.25 C-39.71195313 29.52554688 -39.61140625 28.80109375 -39.5078125 28.0546875 C-37.6632142 20.61411682 -30.9115199 12.81091331 -24.8125 8.25 C-16.6715822 3.64941339 -9.5102306 0.06897719 0 0 Z M-29.8125 46.25 C-25.7721883 56.74034991 -17.75803618 62.06662925 -7.8125 66.625 C-2.32032037 67.76920409 2.93803631 68.0763336 8.25 66.125 C10.3420358 64.33709592 10.3420358 64.33709592 11.3125 61.6875 C11.10305373 55.92772762 8.26401603 50.32651603 4.1875 46.25 C1.60646694 46.07497005 -0.86558163 46.01837721 -3.4453125 46.0546875 C-4.19714813 46.0575174 -4.94898376 46.06034729 -5.72360229 46.06326294 C-8.12839578 46.07447126 -10.53281881 46.09957648 -12.9375 46.125 C-14.56640088 46.13502898 -16.19530758 46.14415497 -17.82421875 46.15234375 C-21.82045556 46.17441265 -25.81641494 46.20894649 -29.8125 46.25 Z " fill="#2D73FE" transform="translate(292.8125,29.75)"/>
<path d="M0 0 C3.53613957 -0.71737258 6.4863452 -0.91001132 10 0 C12.34661322 2.51136595 14.02162602 5.19491743 15.86328125 8.09375 C20.46919147 14.35846153 27.61690377 17.94162369 35 20 C37.60506624 20.3100854 37.60506624 20.3100854 40.125 20.25 C40.95257813 20.25515625 41.78015625 20.2603125 42.6328125 20.265625 C45.21497353 19.97587756 46.82383417 19.40895881 49 18 C50.39479134 14.71813803 50.30178346 12.74814759 48.97265625 9.453125 C47.71305108 6.92661261 46.38806899 4.45785465 45 2 C44.505 1.01 44.505 1.01 44 0 C47.96 0 51.92 0 56 0 C59.08503389 7.29189829 61.33034776 13.18648102 59 21 C57.11775182 24.81275913 54.28040346 27.13768739 50.4375 28.875 C40.79818736 31.89519739 30.98165787 30.22945794 22 26 C12.00749443 20.02564482 4.61685809 12.71111076 0 2 C0 1.34 0 0.68 0 0 Z " fill="#728BAB" transform="translate(253,76)"/>
<path d="M0 0 C0.69931641 -0.020625 1.39863281 -0.04125 2.11914062 -0.0625 C7.65491431 -0.10392768 11.7007761 0.98182428 15.83203125 4.75 C19.70941951 9.72965583 20.5246003 12.95746112 20.1875 19.25 C19.5275 20.24 18.8675 21.23 18.1875 22.25 C15.125 22.5 15.125 22.5 12.1875 22.25 C10.26758639 20.33008639 10.34237696 16.98171222 9.8828125 14.37890625 C9.31150642 11.88581873 9.31150642 11.88581873 6.1875 10.25 C-1.03222371 8.48251577 -7.76505979 10.23877199 -14.34375 13.5078125 C-20.4460365 17.33219069 -25.37603258 22.38151413 -29.21484375 28.4765625 C-30.8125 30.25 -30.8125 30.25 -33.07421875 30.640625 C-33.87472656 30.59421875 -34.67523438 30.5478125 -35.5 30.5 C-36.30824219 30.46390625 -37.11648437 30.4278125 -37.94921875 30.390625 C-38.87154297 30.32101563 -38.87154297 30.32101563 -39.8125 30.25 C-38.7150652 22.34284159 -32.68453259 15.35297648 -27.04296875 9.91796875 C-19.07877644 3.96225926 -9.91199649 0.07189118 0 0 Z " fill="#728BAB" transform="translate(292.8125,29.75)"/>
<path d="M0 0 C1.28970703 0.04253906 2.57941406 0.08507812 3.90820312 0.12890625 C4.91403442 0.17072021 4.91403442 0.17072021 5.94018555 0.21337891 C7.99179813 0.29670054 10.0432766 0.35847813 12.09570312 0.41796875 C22.17791599 0.79119724 22.17791599 0.79119724 24.43359375 3.046875 C24.68359375 5.546875 24.68359375 5.546875 24.43359375 8.046875 C21.77225872 10.70821003 20.47433409 10.30445159 16.76171875 10.3125 C15.05242187 10.31636719 15.05242187 10.31636719 13.30859375 10.3203125 C12.11234375 10.31257812 10.91609375 10.30484375 9.68359375 10.296875 C8.5028125 10.30460938 7.32203125 10.31234375 6.10546875 10.3203125 C4.96078125 10.31773437 3.81609375 10.31515625 2.63671875 10.3125 C1.59161133 10.31024414 0.54650391 10.30798828 -0.53027344 10.30566406 C-3.80265631 10.02673789 -6.50181025 9.20053787 -9.56640625 8.046875 C-9.75390625 5.171875 -9.75390625 5.171875 -9.56640625 2.046875 C-5.91426182 -0.38788796 -4.33282324 -0.14475107 0 0 Z " fill="#728BAB" transform="translate(269.56640625,150.953125)"/>
<path d="M0 0 C1.2375 0.1546875 1.2375 0.1546875 2.5 0.3125 C4.5 3.3125 4.5 3.3125 4.3984375 5.29296875 C2.22697956 14.44874289 -1.73361767 22.60457454 -8.5 29.3125 C-11.8125 30.4375 -11.8125 30.4375 -14.5 30.3125 C-15.16 29.9825 -15.82 29.6525 -16.5 29.3125 C-16.89178898 26.62594702 -17.06970002 24.92612379 -16.5 22.3125 C-14.93905236 20.25328376 -13.1818927 18.49042689 -11.3828125 16.63671875 C-8.50579601 13.08521499 -7.12046785 9.10488772 -5.54296875 4.8515625 C-4.22293054 1.63798633 -3.52470105 0.44058763 0 0 Z " fill="#718DAC" transform="translate(361.5,110.6875)"/>
<path d="M0 0 C0.33 0.33 0.66 0.66 1 1 C0.71269945 3.33944736 0.38063221 5.6739143 0 8 C-20.53209343 16.19222799 -20.53209343 16.19222799 -27 16 C-29.296875 14.52734375 -29.296875 14.52734375 -31 13 C-31 10.6875 -31 10.6875 -30 8 C-27.28747403 6.69798754 -24.86699578 5.86009873 -22 5 C-20.05656713 4.35618788 -18.11324225 3.71201767 -16.17236328 3.06054688 C-14.81799558 2.60704526 -13.46220981 2.15775477 -12.10498047 1.71289062 C-3.86723822 -0.99159954 -3.86723822 -0.99159954 0 0 Z " fill="#728BAA" transform="translate(337,143)"/>
<path d="M0 0 C1 1 1 1 1.25 3.9375 C1.1675 4.948125 1.085 5.95875 1 7 C-2.51898899 9.34599266 -5.73237061 9.82676016 -9.8125 10.5 C-13.76896277 11.16366472 -17.52123497 11.84022479 -21.3359375 13.11328125 C-24.36768699 14.12238262 -25.98292627 13.94822317 -29 13 C-30 12 -30 12 -30.0625 8.9375 C-30.041875 7.968125 -30.02125 6.99875 -30 6 C-19.97714561 1.68954488 -11.01783927 -0.84601266 0 0 Z " fill="#728BAB" transform="translate(247,152)"/>
<path d="M0 0 C4.20869937 0.40468263 5.28939666 1.27968682 8.25 4.3125 C18.50225489 17.58814714 18.50225489 17.58814714 17.9375 23.6875 C17.710625 24.55375 17.48375 25.42 17.25 26.3125 C14.9375 26.9375 14.9375 26.9375 12.25 27.3125 C8.95676104 25.11700736 8.60602092 24.25508284 7.125 20.75 C4.65455642 15.4736205 1.33642901 12.18077438 -3.0546875 8.41796875 C-4.75 6.3125 -4.75 6.3125 -4.5703125 3.61328125 C-3.4206346 0.38870848 -3.4206346 0.38870848 0 0 Z " fill="#728BAB" transform="translate(345.75,67.6875)"/>
<path d="M0 0 C2.375 0.75 2.375 0.75 3.375 1.75 C3.62535974 5.05516934 3.56021952 8.37396041 3.5625 11.6875 C3.57474609 12.62013672 3.58699219 13.55277344 3.59960938 14.51367188 C3.60250977 15.85075195 3.60250977 15.85075195 3.60546875 17.21484375 C3.60957764 18.035896 3.61368652 18.85694824 3.61791992 19.70288086 C3.375 21.75 3.375 21.75 1.375 23.75 C-1.125 23.5625 -1.125 23.5625 -3.625 22.75 C-6.18712287 18.90681569 -5.95608539 15.70306045 -5.9375 11.25 C-5.95361328 10.47785156 -5.96972656 9.70570313 -5.98632812 8.91015625 C-5.99125513 3.2243876 -5.99125513 3.2243876 -4.26635742 0.99023438 C-2.625 -0.25 -2.625 -0.25 0 0 Z " fill="#728BAB" transform="translate(201.625,188.25)"/>
<path d="M0 0 C2.87890625 -0.50390625 2.87890625 -0.50390625 6 0 C9.49825853 3.51095639 12.7381302 8.25971963 13.21875 13.2890625 C12.9375 15.1875 12.9375 15.1875 12 18 C9.23828125 18.29296875 9.23828125 18.29296875 6 18 C3.91796875 15.98828125 3.91796875 15.98828125 2.1875 13.3125 C1.60355469 12.44238281 1.01960937 11.57226562 0.41796875 10.67578125 C-1.00149941 7.99717054 -1.77473874 6.0185009 -2 3 C-1.34 2.01 -0.68 1.02 0 0 Z " fill="#718CAB" transform="translate(204,221)"/>
</svg>
